<svg xmlns="http://www.w3.org/2000/svg" viewBox="0 0 1200 630" width="1200" height="630">
  <defs>
    <radialGradient id="bg" cx="50%" cy="0%" r="80%">
      <stop offset="0%" stop-color="#3a1c0a"/>
      <stop offset="55%" stop-color="#1c0d05"/>
      <stop offset="100%" stop-color="#0c0a09"/>
    </radialGradient>
  </defs>
  <rect width="1200" height="630" fill="url(#bg)"/>

  <g transform="translate(80, 80)">
    <g transform="scale(0.875)">
      <path d="M24 4 L42 10 L42 24 Q42 38 24 44 Q6 38 6 24 L6 10 Z" fill="#ea580c"/>
      <g transform="translate(8, 12)" stroke="#fafaf9" fill="none">
        <circle cx="6.5" cy="14" r="4.5" stroke-width="1.4"/>
        <circle cx="25.5" cy="14" r="4.5" stroke-width="1.4"/>
        <path d="M11 7 L21 7" stroke-width="1.4" stroke-linecap="round"/>
        <path d="M6.5 14 L11 7" stroke-width="1.4" stroke-linecap="round"/>
        <path d="M25.5 14 L22 7" stroke-width="1.4" stroke-linecap="round"/>
        <path d="M19 5 L23 6" stroke-width="1.4" stroke-linecap="round"/>
        <path d="M9 7 L13 7" stroke-width="1.4" stroke-linecap="round"/>
        <path d="M17 7 L12.5 14 L15.5 14 L13 18.5 L19 11 L16 11 Z" fill="#fafaf9" stroke-width="0.4" stroke-linejoin="round"/>
      </g>
    </g>
    <text x="58" y="32" font-family="ui-rounded, -apple-system, 'Helvetica Neue', sans-serif" font-size="26" font-weight="700" fill="#fafaf9">MyEBikeLaw</text>
  </g>

  <text x="80" y="260" font-family="'Oswald', 'Helvetica Neue Condensed', 'Arial Narrow', sans-serif" font-size="22" font-weight="600" letter-spacing="4" fill="#fb923c">E-BIKE LAW · COMPLIANCE BY STATE</text>

  <text x="80" y="370" font-family="'Oswald', 'Helvetica Neue Condensed', 'Arial Narrow', sans-serif" font-size="92" font-weight="700" fill="#fafaf9" letter-spacing="2">YOUR E-BIKE IS LEGAL.</text>
  <text x="80" y="460" font-family="'Oswald', 'Helvetica Neue Condensed', 'Arial Narrow', sans-serif" font-size="92" font-weight="700" fill="#fafaf9" letter-spacing="2">ARE YOU COMPLIANT?</text>

  <text x="80" y="540" font-family="-apple-system, 'Helvetica Neue', sans-serif" font-size="22" fill="#a8a29e">Reads the statute. Cites the law. Doesn't sell you a policy.</text>
</svg>
